<?xml version="1.0" encoding="iso-8859-1"?>
<!-- Uploaded to: SVG Repo, www.svgrepo.com, Generator: SVG Repo Mixer Tools -->
<svg height="800px" width="800px" version="1.1" id="Layer_1" xmlns="http://www.w3.org/2000/svg" xmlns:xlink="http://www.w3.org/1999/xlink" 
	 viewBox="0 0 282.672 282.672" xml:space="preserve">
<g>
	<path style="fill:#4EFFBB;" d="M147.743,16.145c-73.456,0-133.264,59.766-133.264,133.264c0,73.456,59.807,133.263,133.264,133.263
		c73.497,0,133.263-59.807,133.263-133.263C281.005,75.912,221.24,16.145,147.743,16.145z"/>
	<g>
		<path style="fill:#222051;" d="M134.93,0c73.497,0,133.264,59.766,133.264,133.263c0,73.456-59.767,133.264-133.264,133.264
			c-73.456,0-133.264-59.807-133.264-133.264C1.667,59.766,61.475,0,134.93,0z M252.122,133.263
			c0-64.613-52.579-117.191-117.191-117.191S17.78,68.651,17.78,133.263S70.318,250.414,134.93,250.414
			S252.122,197.876,252.122,133.263z"/>
	</g>
	<g>
		<path style="fill:#302C58;" d="M134.93,16.072c-64.613,0-117.151,52.578-117.151,117.191S70.318,250.414,134.93,250.414
			s117.191-52.538,117.191-117.151S199.544,16.072,134.93,16.072z M90.687,104.426c0-9.998,8.105-18.104,18.104-18.104
			s18.104,8.105,18.104,18.104s-8.105,18.104-18.104,18.104C98.792,122.53,90.687,114.424,90.687,104.426z M138.964,182.876
			c-9.999,0-18.104-8.105-18.104-18.104c0-9.998,8.105-18.104,18.104-18.104c9.998,0,18.103,8.105,18.103,18.104
			C157.066,174.77,148.962,182.876,138.964,182.876z M168.465,122.53c-9.998,0-18.103-8.105-18.103-18.104
			s8.105-18.104,18.103-18.104c9.999,0,18.104,8.105,18.104,18.104S178.464,122.53,168.465,122.53z"/>
	</g>
</g>
</svg>